<?xml version="1.0" standalone="no"?>
<!DOCTYPE svg PUBLIC "-//W3C//DTD SVG 20010904//EN"
 "http://www.w3.org/TR/2001/REC-SVG-20010904/DTD/svg10.dtd">
<svg version="1.0" xmlns="http://www.w3.org/2000/svg"
 width="581.000000pt" height="852.000000pt" viewBox="0 0 581.000000 852.000000"
 preserveAspectRatio="xMidYMid meet">

<g transform="translate(0.000000,852.000000) scale(0.100000,-0.100000)"
fill="#000000" stroke="none">
<path d="M3660 6959 c0 -3 34 -79 76 -169 42 -91 129 -283 195 -427 l119 -261
0 -569 1 -568 110 -65 c292 -172 520 -395 658 -644 120 -218 190 -456 226
-776 9 -78 -3 -56 -25 44 -48 217 -160 483 -280 665 -77 115 -231 277 -338
354 -43 31 -82 57 -86 57 -3 0 -7 -712 -8 -1582 l-3 -1582 -69 -58 c-81 -68
-226 -166 -349 -236 -335 -191 -789 -310 -1145 -300 l-122 3 0 -411 0 -412
148 -7 c257 -13 591 18 882 84 601 134 1089 399 1456 791 310 332 523 758 628
1256 183 877 14 1661 -561 2597 -156 255 -315 485 -688 997 -443 609 -623 874
-782 1150 -24 41 -43 72 -43 69z"/>
</g>
</svg>
